<!-- <svg width="18" height="18" viewBox="0 0 18 18" fill="none" xmlns="http://www.w3.org/2000/svg">
<path d="M10.9443 6.16667L11.8321 7.05444L3.25656 15.6111H2.38767V14.7422L10.9443 6.16667ZM14.3443 0.5C14.1082 0.5 13.8627 0.594444 13.6832 0.773889L11.9549 2.50222L15.4966 6.04389L17.2249 4.31556C17.5932 3.94722 17.5932 3.33333 17.2249 2.98389L15.0149 0.773889C14.826 0.585 14.5899 0.5 14.3443 0.5ZM10.9443 3.51278L0.498779 13.9583V17.5H4.04045L14.486 7.05444L10.9443 3.51278Z" fill="#51646E"/>
</svg> -->

<svg xmlns="http://www.w3.org/2000/svg" width="15" height="15" viewBox="0 0 22 22" fill="currentColor" class="size-6">
  <path d="M21.731 2.269a2.625 2.625 0 0 0-3.712 0l-1.157 1.157 3.712 3.712 1.157-1.157a2.625 2.625 0 0 0 0-3.712ZM19.513 8.199l-3.712-3.712-8.4 8.4a5.25 5.25 0 0 0-1.32 2.214l-.8 2.685a.75.75 0 0 0 .933.933l2.685-.8a5.25 5.25 0 0 0 2.214-1.32l8.4-8.4Z" />
  <path d="M5.25 5.25a3 3 0 0 0-3 3v10.5a3 3 0 0 0 3 3h10.5a3 3 0 0 0 3-3V13.5a.75.75 0 0 0-1.5 0v5.25a1.5 1.5 0 0 1-1.5 1.5H5.25a1.5 1.5 0 0 1-1.5-1.5V8.25a1.5 1.5 0 0 1 1.5-1.5h5.25a.75.75 0 0 0 0-1.5H5.25Z" />
</svg>
